<svg id="Layer_1" xmlns="http://www.w3.org/2000/svg" viewBox="0 0 164 41">
  <style>
    .st0{opacity:0;fill:#FFFFFF;} .st1{fill:#27AAE1;} .st2{fill:#3EB649;} .st3{fill-rule:evenodd;clip-rule:evenodd;fill:#FEE400;}
  </style>
  <path class="st0" d="M0 0h164v41H0z"/>
  <path class="st1" d="M57.1 26.9H31.3c.3 2.9 1.5 5.3 3.7 7.1 2.1 1.9 4.7 2.8 7.6 2.8 4.5-.1 7.8-2.2 9.7-6.3h4.1c-1.1 3.1-2.9 5.5-5.4 7.3-2.6 1.8-5.4 2.7-8.5 2.8-3.9.1-7.4-1.4-10.4-4.3s-4.6-6.4-4.6-10.5c-.1-4.3 1.4-8 4.6-11.1 3.1-3.1 6.8-4.5 11.1-4.3 3.8.2 7.1 1.8 10 4.7 2.7 2.9 4.1 6.1 4.1 9.7v2.1zm-3.8-3.5c-.5-2.7-1.8-4.9-3.8-6.5-2-1.7-4.3-2.5-7.1-2.5s-5.2.8-7.2 2.5c-2.1 1.7-3.4 3.9-3.9 6.6h22zM71 40.5c-7 0-10.5-3-10.5-8.9V1.2h3.8v10H71v3.6h-6.6V31c0 4.3 2.2 6.4 6.6 6.4v3.1zM84.8 40.5c-7 0-10.5-3-10.5-8.9V1.2h3.8v10h6.6v3.6h-6.6V31c0 4.3 2.2 6.4 6.6 6.4v3.1zM126.1 26.9h-25.8c.3 2.9 1.5 5.3 3.7 7.1 2.1 1.9 4.7 2.8 7.6 2.8 4.5-.1 7.8-2.2 9.7-6.3h4.1c-1.1 3.1-2.9 5.5-5.4 7.3-2.6 1.8-5.4 2.7-8.5 2.8-3.9.1-7.4-1.4-10.4-4.3s-4.6-6.4-4.6-10.5c-.1-4.3 1.4-8 4.6-11.1 3.1-3.1 6.8-4.5 11.1-4.3 3.8.2 7.1 1.8 10 4.7 2.7 2.9 4.1 6.1 4.1 9.7v2.1zm-3.8-3.5c-.5-2.7-1.8-4.9-3.8-6.5-2-1.7-4.3-2.5-7.1-2.5s-5.2.8-7.2 2.5c-2.1 1.7-3.4 3.9-3.9 6.6h22z"/>
  <path class="st2" d="M129.5 11.2h3.8v29.4h-3.8zM162.8 40.6H159V23.2c0-2.4-.9-4.5-2.7-6.2-1.8-1.7-3.8-2.6-6.2-2.6-2.4 0-4.5.9-6.3 2.6-1.8 1.7-2.7 3.8-2.7 6.2v17.4h-3.8v-17c0-3.7 1.2-6.8 3.6-9.3 2.4-2.5 5.5-3.7 9.1-3.7 3.6 0 6.6 1.2 9.1 3.7 2.4 2.5 3.6 5.6 3.6 9.3v17z"/>
  <path class="st3" d="M133.6 1.1c-.1 0-.1 0 0 0-.5-.5-1.2-.9-2.1-.9h-.2c-.9 0-1.5.4-2 .8l-.1.1c-.4.5-.8 1.1-.8 2v.1c0 .8.3 1.2.6 1.8l.9 1.5c.6 1 1.2 2 1.5 3.2.3-1.3.9-2.3 1.5-3.2.3-.5.6-.9.9-1.4.1-.2.3-.5.4-.8.1-.3.2-.6.2-1v-.1c0-1-.4-1.6-.8-2.1zM131.4 4c-.5 0-.9-.4-.9-.9s.4-.9.9-.9.9.4.9.9-.4.9-.9.9z"/>
  <path class="st1" d="M13.8 40.8c-2.7 0-4.9-.4-6.7-1.2-1.8-.8-3.2-2-4.3-3.5-1-1.6-1.6-3.4-1.6-5.3l3.7-.3c.2 1.5.6 2.7 1.2 3.6.6.9 1.6 1.7 3 2.3 1.3.6 2.9.9 4.5.9 1.5 0 2.8-.2 4-.7 1.1-.4 2-1.1 2.6-1.8.6-.8.8-1.6.8-2.5 0-.9-.3-1.7-.8-2.4s-1.4-1.3-2.7-1.7c-.8-.3-2.6-.8-5.3-1.4-2.7-.6-4.6-1.3-5.7-1.8-1.4-1-2.4-1.9-3.1-3-.7-1.1-1-2.3-1-3.7 0-1.5.4-2.9 1.3-4.2.8-1.3 2.1-2.3 3.7-3 1.6-.7 3.5-1 5.4-1 2.2 0 4.1.4 5.8 1.1 1.7.7 3 1.8 3.9 3.1.9 1.4 1.4 2.9 1.5 4.7l-3.8.3c-.2-1.9-.9-3.3-2-4.2-1.2-1-2.9-1.4-5.2-1.4-2.4 0-4.1.4-5.2 1.3-1.1.9-1.6 1.9-1.6 3.1 0 1.1.4 1.9 1.2 2.6.7.7 2.7 1.4 5.9 2.1 3.2.7 5.4 1.4 6.5 1.9 1.7.8 3 1.8 3.8 3 .8 1.2 1.2 2.6 1.2 4.2s-.5 3.1-1.4 4.5c-.9 1.4-2.2 2.5-3.9 3.3-1.7.7-3.6 1.1-5.7 1.1zM88.2 1.1H92v39.4h-3.8z"/>
</svg>
