<svg id="Layer_1" xmlns="http://www.w3.org/2000/svg" viewBox="0 0 30 37">
  <style>
    .st0{opacity:0;} .st1{fill:#FFFFFF;} .st2{fill:#3EB649;} .st3{fill:#FEE400;}
  </style>
  <path class="st0 st1" d="M0 0h30v37H0z"/>
  <path class="st2" d="M16.7 18.8c-2 .3-4.4-.2-5.2-2.6-.3-1-.2-2.1.3-3 .5-.9 1.3-1.6 2.3-1.9 2.1-.7 4.3.5 5 2.6 0 .1 0 .2.1.3l2.5-1v-.1c-1.1-3.5-4.8-5.4-8.3-4.3-1.7.5-3.1 1.7-3.9 3.2-.8 1.6-1 3.4-.5 5 1 3.3 4.2 5 8.1 4.4 2-.4 4.4.3 5.1 2.6 2.2 6.6-5.4 9.3-7.1 10-2.9-2.2-5.3-4.6-7.3-7.1l-2.2 1.6c2.2 2.8 5.1 5.6 8.5 8.1l.2.1c.2.1.4.1.6.1.3 0 .5-.1.8-.2l-.2.1c4.1-1.3 11.9-5.7 9.1-13.5-1-3.3-4.2-5.1-7.9-4.4z"/>
  <path class="st2" d="M15 .2C6.9.2.3 6.8.3 14.9c0 2.7.7 5.4 2 8.2L4.7 22c-1.2-2.4-1.8-4.8-1.8-7.1C2.9 8.2 8.3 2.8 15 2.8c6.7 0 12.1 5.4 12.1 12.1 0 .8-.1 1.6-.2 2.4.8.8 1.5 1.8 2 2.9.6-1.8.9-3.6.9-5.4C29.8 6.8 23.1.2 15 .2z"/>
  <circle class="st3" cx="5" cy="25.3" r="1.8"/>
</svg>
